<?xml version="1.0" encoding="UTF-8"?>
<svg width="512" height="512" viewBox="0 0 512 512" xmlns="http://www.w3.org/2000/svg">
    <defs>
        <linearGradient id="grad" x1="0%" y1="0%" x2="100%" y2="100%">
            <stop offset="0%" style="stop-color:#10a37f;stop-opacity:1" />
            <stop offset="100%" style="stop-color:#0e8c6d;stop-opacity:1" />
        </linearGradient>
    </defs>
    <rect width="512" height="512" rx="128" fill="url(#grad)"/>
    <g fill="#ffffff" transform="translate(128, 128) scale(0.5)">
        <!-- Microphone icon -->
        <path d="M256 320c35.35 0 64-28.65 64-64V112c0-35.35-28.65-64-64-64s-64 28.65-64 64v144c0 35.35 28.65 64 64 64zm-32-208c0-17.64 14.36-32 32-32s32 14.36 32 32v144c0 17.64-14.36 32-32 32s-32-14.36-32-32V112z"/>
        <path d="M352 176v80c0 52.94-43.06 96-96 96s-96-43.06-96-96v-80H128v80c0 70.69 57.31 128 128 128 70.69 0 128-57.31 128-128v-80h-32z"/>
        <!-- Sound waves -->
        <path d="M416 224c0 88.37-71.63 160-160 160S96 312.37 96 224h-32c0 106.04 85.96 192 192 192s192-85.96 192-192h-32z"/>
    </g>
</svg> 